<?xml version="1.0" encoding="iso-8859-1"?>
<!-- Generator: Adobe Illustrator 19.0.0, SVG Export Plug-In . SVG Version: 6.00 Build 0)  -->
<svg xmlns="http://www.w3.org/2000/svg" xmlns:xlink="http://www.w3.org/1999/xlink" version="1.1" id="Capa_1" x="0px" y="0px" viewBox="0 0 507.975 507.975" style="enable-background:new 0 0 507.975 507.975;" xml:space="preserve" width="512px" height="512px">
<g>
	<g>
		<path d="M493.937,119.275h-89.4v-47.2c0-4.7-2.3-9.1-6.2-11.7l-86.3-58c-6.5-4.3-15.2-2.6-19.6,3.8c-4.4,6.5-2.6,15.2,3.8,19.6    l80,53.8v39.7h-89.4c-7.8,0-14.1,6.3-14.1,14.1v182.8c-25.8-32.9-65.8-53.7-109.4-53.7c-61.2,0-115.6,41.2-133,99.2    c-17.4,4.7-30.3,20.7-30.3,39.7s12.9,34.9,30.3,39.7c3.4,11.4,14,66.9,76.8,66.9h112.4c23.5,0,45.5-11.3,59-29.7    c8.9,17.6,27.2,29.7,48.2,29.7h127.1c29.8,0,54.1-24.3,54.1-54.1v-320.5C508.037,125.575,501.737,119.275,493.937,119.275z     M300.937,147.475h75.3v86.8h-75.3V147.475z M163.337,290.675c45.4,0,86,28.3,102.6,69.5h-205.2    C77.337,318.975,118.037,290.675,163.337,290.675z M219.537,479.775h-112.4c-33.6,0-44.2-31.6-46.4-37.2h205.3    C263.737,448.175,249.037,479.775,219.537,479.775z M286.837,414.175l-245.6,0.1c-7.2,0-13-5.8-13-13s5.8-13,13-13h244.2    c7.2,0,13,5.8,13,13C298.437,408.075,293.337,413.475,286.837,414.175z M479.837,453.875c0,14.3-11.6,25.9-25.9,25.9h-127.1    c-14.3,0-25.9-11.6-25.9-25.9v-14.4c15.1-6.1,25.7-20.9,25.7-38.2c0-17.2-10.7-32-25.7-38.2v-100.5h178.9V453.875z     M479.837,234.375h-75.3v-86.8h75.3V234.375z" fill="#CFD2D6"/>
	</g>
</g>
<g>
</g>
<g>
</g>
<g>
</g>
<g>
</g>
<g>
</g>
<g>
</g>
<g>
</g>
<g>
</g>
<g>
</g>
<g>
</g>
<g>
</g>
<g>
</g>
<g>
</g>
<g>
</g>
<g>
</g>
</svg>
