<?xml version="1.0" encoding="iso-8859-1"?>
<!-- Generator: Adobe Illustrator 18.0.0, SVG Export Plug-In . SVG Version: 6.00 Build 0)  -->
<!DOCTYPE svg PUBLIC "-//W3C//DTD SVG 1.1//EN" "http://www.w3.org/Graphics/SVG/1.1/DTD/svg11.dtd">
<svg xmlns="http://www.w3.org/2000/svg" xmlns:xlink="http://www.w3.org/1999/xlink" version="1.1" id="Capa_1" x="0px" y="0px" viewBox="0 0 490.304 490.304" style="enable-background:new 0 0 490.304 490.304;" xml:space="preserve" width="512px" height="512px">
<g id="XMLID_266_">
	<path id="XMLID_268_" d="M327.698,130.197h-6.531l-88.97-72.572l0,0c0,17.92-12.307,35.1-32.446,35.1   c-17.921,0-32.455-14.531-32.455-32.451v-2.648l-89.377,72.572h-6.135c-8.971,0-16.227,7.26-16.227,16.225v327.656   c0,8.97,7.256,16.226,16.227,16.226h255.914c8.97,0,16.226-7.256,16.226-16.226V146.422   C343.924,137.457,336.668,130.197,327.698,130.197z M311.47,457.853h-60.05V316.963c0-17.703-14.354-32.053-32.06-32.053h-1.07   c10.122-6.246,16.952-17.356,16.952-30.139c0-17.89-2.222-37.965-32.816-65.787c-1.567-1.428-3.806-1.871-5.797-1.143   c-1.999,0.729-3.428,2.504-3.711,4.608c-3.437,26.048-28.663,45.175-28.663,62.321c0,12.782,6.81,23.893,16.953,30.139h-1.092   c-17.697,0-32.057,14.35-32.057,32.053v140.891H88.009V162.65H311.47V457.853z" fill="#818285"/>
	<path id="XMLID_267_" d="M418.521,0h-218.77c-8.97,0-16.229,7.255-16.229,16.226v44.048c0,8.969,7.259,16.227,16.229,16.227   s16.227-7.258,16.227-16.227V32.449h202.544c8.969,0,16.226-7.256,16.226-16.224C434.747,7.255,427.49,0,418.521,0z" fill="#818285"/>
</g>
<g>
</g>
<g>
</g>
<g>
</g>
<g>
</g>
<g>
</g>
<g>
</g>
<g>
</g>
<g>
</g>
<g>
</g>
<g>
</g>
<g>
</g>
<g>
</g>
<g>
</g>
<g>
</g>
<g>
</g>
</svg>
